<?xml version="1.0" encoding="UTF-8" standalone="no"?>
<!-- Created with Inkscape (http://www.inkscape.org/) -->

<svg
   xmlns:dc="http://purl.org/dc/elements/1.1/"
   xmlns:cc="http://creativecommons.org/ns#"
   xmlns:rdf="http://www.w3.org/1999/02/22-rdf-syntax-ns#"
   xmlns:svg="http://www.w3.org/2000/svg"
   xmlns="http://www.w3.org/2000/svg"
   xmlns:xlink="http://www.w3.org/1999/xlink"
   xmlns:sodipodi="http://sodipodi.sourceforge.net/DTD/sodipodi-0.dtd"
   xmlns:inkscape="http://www.inkscape.org/namespaces/inkscape"
   width="72"
   height="72"
   id="svg3278"
   version="1.1"
   inkscape:version="0.48.4 r9939"
   sodipodi:docname="Android Contacts big.svg">
  <defs
     id="defs3280">
    <linearGradient
       id="linearGradient21392"
       y2="1006.7"
       xlink:href="#linearGradient20935"
       gradientUnits="userSpaceOnUse"
       y1="1038.6"
       x2="-321.88"
       x1="-321.88"
       inkscape:collect="always" />
    <linearGradient
       id="linearGradient20935"
       inkscape:collect="always">
      <stop
         id="stop20937"
         style="stop-color:#072e97"
         offset="0" />
      <stop
         id="stop20939"
         style="stop-color:#1588e2"
         offset="1" />
    </linearGradient>
    <linearGradient
       id="linearGradient21394"
       y2="1014.7"
       gradientUnits="userSpaceOnUse"
       y1="1030.6"
       x2="-320.76001"
       x1="-320.76001"
       inkscape:collect="always">
      <stop
         id="stop20929"
         style="stop-color:#6dc0f2"
         offset="0" />
      <stop
         id="stop20931"
         style="stop-color:#c1e3fc"
         offset="1" />
    </linearGradient>
    <linearGradient
       y2="1014.7"
       x2="-320.76001"
       y1="1030.6"
       x1="-320.76001"
       gradientUnits="userSpaceOnUse"
       id="linearGradient3276"
       xlink:href="#linearGradient21394"
       inkscape:collect="always" />
    <linearGradient
       id="linearGradient21422"
       y2="1006.7"
       xlink:href="#linearGradient20935-1"
       gradientUnits="userSpaceOnUse"
       y1="1038.6"
       gradientTransform="matrix(1.4972,0,0,1.4972,294.53,-534.76)"
       x2="-321.88"
       x1="-321.88"
       inkscape:collect="always" />
    <linearGradient
       id="linearGradient20935-1"
       inkscape:collect="always">
      <stop
         id="stop20937-7"
         style="stop-color:#072e97"
         offset="0" />
      <stop
         id="stop20939-4"
         style="stop-color:#1588e2"
         offset="1" />
    </linearGradient>
    <linearGradient
       y2="1006.7"
       x2="-321.88"
       y1="1038.6"
       x1="-321.88"
       gradientTransform="matrix(1.4972,0,0,1.4972,294.53,-534.76)"
       gradientUnits="userSpaceOnUse"
       id="linearGradient3348"
       xlink:href="#linearGradient20935-1"
       inkscape:collect="always" />
  </defs>
  <sodipodi:namedview
     id="base"
     pagecolor="#ffffff"
     bordercolor="#666666"
     borderopacity="1.0"
     inkscape:pageopacity="0.0"
     inkscape:pageshadow="2"
     inkscape:zoom="0.35"
     inkscape:cx="-493.54039"
     inkscape:cy="29.062301"
     inkscape:document-units="px"
     inkscape:current-layer="layer1"
     showgrid="false"
     fit-margin-top="0"
     fit-margin-left="0"
     fit-margin-right="0"
     fit-margin-bottom="0"
     inkscape:window-width="1920"
     inkscape:window-height="1018"
     inkscape:window-x="-8"
     inkscape:window-y="-8"
     inkscape:window-maximized="1" />
  <metadata
     id="metadata3283">
    <rdf:RDF>
      <cc:Work
         rdf:about="">
        <dc:format>image/svg+xml</dc:format>
        <dc:type
           rdf:resource="http://purl.org/dc/dcmitype/StillImage" />
        <dc:title></dc:title>
      </cc:Work>
    </rdf:RDF>
  </metadata>
  <g
     inkscape:label="Layer 1"
     inkscape:groupmode="layer"
     id="layer1"
     transform="translate(-868.5404,-489.42449)">
    <g
       id="g21412"
       inkscape:export-ydpi="90"
       inkscape:export-xdpi="90"
       transform="translate(1090.8104,-471.0655)">
      <rect
         id="rect20979"
         style="fill:#ffffff"
         inkscape:export-ydpi="90"
         rx="6.4898"
         ry="6.4898"
         height="72"
         width="72"
         inkscape:export-xdpi="90"
         y="960.48999"
         x="-222.27" />
      <path
         id="rect20943"
         d="m -203.79,972.4 c -0.52366,0 -0.93574,0.412 -0.93574,0.9359 v 5.5209 h -2.0118 c -0.94261,0 -1.6844,0.7886 -1.6844,1.731 0,0.7071 0.41825,1.2864 1.0293,1.544 0.29975,0.4821 0.79184,0.7955 1.4036,0.7955 h 1.2632 v 6.3631 h -2.0118 c -0.94261,0 -1.6844,0.7416 -1.6844,1.6843 0,0.7067 0.41825,1.2862 1.0293,1.544 0.29975,0.482 0.79184,0.7951 1.4036,0.7951 h 1.2632 v 6.3632 h -2.0118 c -0.94261,0 -1.6844,0.7419 -1.6844,1.6843 0,0.7071 0.41825,1.3332 1.0293,1.591 0.30121,0.4746 0.7973,0.7952 1.4036,0.7952 h 1.2632 v 6.3164 h -2.0118 c -0.94261,0 -1.6844,0.7416 -1.6844,1.6843 0,0.7068 0.41825,1.3331 1.0293,1.5906 0.30121,0.4751 0.7973,0.7955 1.4036,0.7955 h 1.2632 v 5.5209 c 0,0.5238 0.41208,0.9358 0.93574,0.9358 h 38.74 c 0.52367,0 0.93575,-0.412 0.93575,-0.9358 v -46.319 c 0,-0.5239 -0.41208,-0.9359 -0.93575,-0.9359 h -38.74 z m 19.37,12.258 c 2.83,0 5.1466,2.2339 5.1466,4.9594 0,2.7256 -2.3166,4.9128 -5.1466,4.9128 -2.8299,0 -5.0998,-2.1872 -5.0998,-4.9128 0,-2.7255 2.2699,-4.9596 5.0998,-4.9594 z m -1.3568,12.398 h 2.7604 c 4.9748,0 8.9832,4.0084 8.9832,8.9832 v 2.6669 h -20.727 v -2.6669 c 0,-4.9748 4.0083,-8.9832 8.9831,-8.9832 z"
         style="fill:url(#linearGradient3348)"
         inkscape:connector-curvature="0" />
    </g>
  </g>
</svg>
