<?xml version="1.0" encoding="UTF-8" standalone="no"?>
<!--part of the rodentia icon theme by sixsixfive released under CC0 (https://creativecommons.org/publicdomain/zero/1.0/) on openclipart-->
<svg xmlns="http://www.w3.org/2000/svg" xmlns:xlink="http://www.w3.org/1999/xlink" viewBox="0 0 48 48">
 <defs id="0">
  <linearGradient id="B">
   <stop id="P" stop-color="#c00"/>
   <stop id="Q" offset="1" stop-color="#a40000"/>
  </linearGradient>
  <linearGradient id="C">
   <stop id="R" stop-color="#fff" stop-opacity="0.4"/>
   <stop id="S" offset="1" stop-color="#fff" stop-opacity="0"/>
  </linearGradient>
  <linearGradient id="D">
   <stop id="T" stop-color="#2e3436"/>
   <stop id="U" offset="1" stop-color="#2e3436" stop-opacity="0"/>
  </linearGradient>
  <linearGradient id="E">
   <stop id="V" stop-color="#fff"/>
   <stop id="W" offset="1" stop-color="#fff" stop-opacity="0"/>
  </linearGradient>
  <linearGradient id="F">
   <stop id="X" stop-color="#fff" stop-opacity="0.8"/>
   <stop id="Y" offset="1" stop-color="#fff" stop-opacity="0"/>
  </linearGradient>
  <linearGradient id="G">
   <stop id="Z" stop-color="#555753"/>
   <stop id="a" offset="1" stop-color="#2e3436"/>
  </linearGradient>
  <linearGradient id="H">
   <stop id="b" stop-color="#d3d7cf"/>
   <stop id="c" offset="1" stop-color="#babdb6"/>
  </linearGradient>
  <radialGradient cx="24.708" cy="42.11" r="22.16" id="I" xlink:href="#D" gradientUnits="userSpaceOnUse" gradientTransform="matrix(1,0,0,0.09589041,0,38.073311)"/>
  <linearGradient y1="9.03" x2="0" y2="38.969" id="J" xlink:href="#H" gradientUnits="userSpaceOnUse"/>
  <linearGradient y1="13.531" x2="0" y2="34.469" id="K" xlink:href="#G" gradientUnits="userSpaceOnUse"/>
  <linearGradient y1="8.979" x2="0" y2="39.02" id="L" xlink:href="#F" gradientUnits="userSpaceOnUse"/>
  <linearGradient y1="34.427" x2="0" y2="13.573" id="M" xlink:href="#C" gradientUnits="userSpaceOnUse"/>
  <linearGradient x1="-0.174" y1="-40.07" x2="24" y2="31.659" id="N" xlink:href="#E" gradientUnits="userSpaceOnUse"/>
  <linearGradient y1="16.85" x2="0" y2="31.15" id="O" xlink:href="#B" gradientUnits="userSpaceOnUse"/>
 </defs>
 <path d="m 46.866049,42.111389 a 22.158171,2.1247561 0 1 1 -44.3163416,0 22.158171,2.1247561 0 1 1 44.3163416,0 z" transform="matrix(1.0493151,0,0,-1.4518947,-1.9263496,100.27038)" id="1" opacity="0.8" fill="url(#I)"/>
 <path d="m 5.21875,7.9375 c -1.108,0 -2,0.892 -2,2 l 0,28.125 c 0,1.108 0.892,2 2,2 l 37.5625,0 c 1.108,0 2,-0.892 2,-2 l 0,-28.125 c 0,-1.108 -0.892,-2 -2,-2 l -37.5625,0 z" id="2" fill="#2e3436"/>
 <path d="m 5.21875,9.03125 c -0.5241331,0 -0.90625,0.3821169 -0.90625,0.90625 l 0,28.125 c 0,0.524133 0.3821169,0.90625 0.90625,0.90625 l 37.5625,0 c 0.524133,0 0.90625,-0.382117 0.90625,-0.90625 l 0,-28.125 c 0,-0.5241331 -0.382117,-0.90625 -0.90625,-0.90625 l -37.5625,0 z" id="3" fill="url(#J)"/>
 <rect width="32.615" height="23.508" x="7.692" y="12.246" id="4" fill="#2e3436"/>
 <path d="m 8.96875,13.53125 0,20.9375 30.0625,0 0,-20.9375 -30.0625,0 z" id="5" fill="url(#K)"/>
 <path d="m 32.171819,24.002089 a 8.171819,8.171039 0 0 1 -16.343638,0 8.1718192,8.1710366 0 1 1 16.343638,0 z" id="6" fill="#2e3436"/>
 <path d="m 24.008097,16.849659 c -3.903346,0 -7.158439,3.159599 -7.158439,7.150341 0,3.990743 3.255096,7.150342 7.158439,7.150342 3.903346,0 7.142244,-3.158549 7.142244,-7.150342 0,-3.991789 -3.238898,-7.150341 -7.142244,-7.150341 z" id="7" fill="url(#O)"/>
 <path d="m 5.21875,9.5 c -0.2768191,0 -0.4375,0.1606809 -0.4375,0.4375 l 0,28.125 c 0,0.276819 0.1606809,0.4375 0.4375,0.4375 l 37.5625,0 c 0.276819,0 0.4375,-0.160681 0.4375,-0.4375 l 0,-28.125 C 43.21875,9.6606809 43.058069,9.5 42.78125,9.5 l -37.5625,0 z" id="8" opacity="0.8" fill="none" stroke="url(#L)" stroke-linejoin="round" stroke-linecap="round" stroke-width="1.042"/>
 <path d="m 9.53125,14.09375 0,19.8125 28.9375,0 0,-19.8125 -28.9375,0 z" id="9" opacity="0.6" fill="none" stroke="url(#M)" stroke-linecap="round" stroke-width="1.042"/>
 <path d="m 8.96875,13.53125 0,15.5625 c 10.267155,-2.287078 20.360583,-3.97296 30.0625,-4.1875 l 0,-11.375 -30.0625,0 z" id="A" opacity="0.6" fill="url(#N)"/>
</svg>
